<?xml version="1.0" standalone="no"?>
<!DOCTYPE svg PUBLIC "-//W3C//DTD SVG 20010904//EN"
 "http://www.w3.org/TR/2001/REC-SVG-20010904/DTD/svg10.dtd">
<svg version="1.0" xmlns="http://www.w3.org/2000/svg"
 width="800.000000pt" height="800.000000pt" viewBox="0 0 800.000000 800.000000"
 preserveAspectRatio="xMidYMid meet">
<metadata>
Created by potrace 1.15, written by Peter Selinger 2001-2017
</metadata>
<g transform="translate(0.000000,800.000000) scale(0.100000,-0.100000)"
fill="#000000" stroke="none">
<path d="M2300 4530 l0 -1700 1705 0 1705 0 0 1700 0 1700 -1705 0 -1705 0 0
-1700z m3080 290 l0 -1080 -1375 0 -1375 0 0 1080 0 1080 1375 0 1375 0 0
-1080z"/>
<path d="M3179 5366 c-82 -29 -130 -84 -150 -172 -35 -153 112 -299 266 -265
68 15 118 51 152 109 55 92 31 225 -52 288 -67 51 -145 66 -216 40z"/>
<path d="M4299 4853 c-122 -175 -224 -320 -226 -323 -2 -2 -77 69 -167 159
l-164 164 -34 -54 c-19 -30 -92 -147 -163 -261 l-130 -208 -131 131 -131 130
-96 -255 c-54 -140 -97 -258 -97 -261 0 -3 471 -5 1046 -5 632 0 1044 4 1042
9 -16 46 -515 1091 -520 1091 -4 0 -107 -143 -229 -317z"/>
<path d="M2928 2234 c-151 -46 -199 -289 -81 -407 38 -39 109 -67 168 -67 103
0 193 63 220 153 65 218 -96 386 -307 321z m160 -84 c42 -26 62 -73 62 -146 0
-101 -51 -164 -133 -164 -85 0 -137 63 -137 165 0 104 50 165 135 165 23 0 54
-9 73 -20z"/>
<path d="M4934 2240 c-44 -10 -100 -46 -122 -78 -75 -107 -51 -293 47 -358 60
-39 145 -51 226 -31 37 9 82 26 101 38 l34 21 0 94 0 94 -105 0 -105 0 0 -40
0 -40 56 0 55 0 -3 -32 c-7 -71 -146 -93 -208 -33 -48 46 -65 141 -36 208 35
85 140 116 205 61 17 -14 31 -32 31 -41 0 -9 7 -13 18 -9 9 2 32 7 50 11 38 8
39 12 10 55 -52 76 -147 106 -254 80z"/>
<path d="M2310 2005 l0 -235 45 0 44 0 3 152 3 153 96 -150 96 -150 47 -3 46
-3 0 235 0 236 -40 0 -40 0 0 -156 c0 -85 -4 -153 -8 -150 -4 2 -50 72 -102
155 l-95 151 -47 0 -48 0 0 -235z"/>
<path d="M3530 2005 l0 -235 45 0 45 0 0 235 0 235 -45 0 -45 0 0 -235z"/>
<path d="M3720 2005 l0 -235 45 0 45 0 2 183 3 182 46 -180 45 -180 46 -3 46
-3 43 175 c24 96 47 172 51 170 4 -3 8 -81 8 -175 l0 -169 45 0 45 0 0 235 0
235 -74 0 -73 0 -43 -160 c-24 -88 -45 -158 -47 -156 -3 2 -23 73 -46 158
l-42 153 -73 3 -72 3 0 -236z"/>
<path d="M4345 2023 c-49 -119 -93 -225 -97 -235 -7 -17 -3 -19 44 -16 l51 3
20 53 20 53 100 -3 100 -3 20 -52 20 -53 52 0 53 0 -101 235 -100 235 -46 0
-46 0 -90 -217z"/>
<path d="M5310 2005 l0 -235 185 0 185 0 0 40 0 40 -135 0 -135 0 0 65 0 65
120 0 120 0 0 40 0 40 -120 0 -120 0 0 50 0 50 130 0 130 0 0 40 0 40 -180 0
-180 0 0 -235z"/>
</g>
</svg>
